PathFileType	4	(X/Y/Z)	C:\Users\dbl\Desktop\LZH\BX\Trimmed_Trimmed_Trimmed_Trimmed_bx_n_5_1801.trc
DataRate	CameraRate	NumFrames	NumMarkers	Units	OrigDataRate	OrigDataStartFrame	OrigNumFrames
50.00	50.00	       4	43	mm	50.00	1	       290
Frame#	Time	Top.Head			R.Acromium			L.Acromium			Sternum			R.ASIS			L.ASIS			V.Sacral			R.Thigh.Upper			R.Thigh.Front			R.Thigh.Rear			R.Knee.Lat			R.Knee.Med			R.Shank.Upper			R.Shank.Front			R.Shank.Rear			R.Ankle.Lat			R.Midfoot.Lat			R.Toe.Lat			R.Toe.Tip			R.Toe.Med			R.Ankle.Med			R.Midfoot.Sup			R.Heel			L.Thigh.Upper			L.Thigh.Front			L.Thigh.Rear			L.Knee.Lat			L.Knee.Med			L.Shank.Upper			L.Shank.Front			L.Shank.Rear			L.Ankle.Lat			L.Midfoot.Lat			L.Toe.Lat			L.Toe.Tip			L.Toe.Med			L.Ankle.Med			L.Midfoot.Sup			L.Heel			origin1 front left			origin2 front right			origin 3 back right			origin 4 back leftt			
		X1	Y1	Z1	X2	Y2	Z2	X3	Y3	Z3	X4	Y4	Z4	X5	Y5	Z5	X6	Y6	Z6	X7	Y7	Z7	X8	Y8	Z8	X9	Y9	Z9	X10	Y10	Z10	X11	Y11	Z11	X12	Y12	Z12	X13	Y13	Z13	X14	Y14	Z14	X15	Y15	Z15	X16	Y16	Z16	X17	Y17	Z17	X18	Y18	Z18	X19	Y19	Z19	X20	Y20	Z20	X21	Y21	Z21	X22	Y22	Z22	X23	Y23	Z23	X24	Y24	Z24	X25	Y25	Z25	X26	Y26	Z26	X27	Y27	Z27	X28	Y28	Z28	X29	Y29	Z29	X30	Y30	Z30	X31	Y31	Z31	X32	Y32	Z32	X33	Y33	Z33	X34	Y34	Z34	X35	Y35	Z35	X36	Y36	Z36	X37	Y37	Z37	X38	Y38	Z38	X39	Y39	Z39	X40	Y40	Z40	X41	Y41	Z41	X42	Y42	Z42	X43	Y43	Z43	

1	0.000	-622.96466	274.39743	1836.21631	-629.53070	90.24914	1543.54370	-629.71875	447.04733	1527.74023	-523.39227	263.62759	1354.84729	-532.71503	131.21996	1033.17700	-507.32071	357.37851	1035.61938	-722.76349	257.83698	1055.08582	-609.13971	81.73711	831.69330	-520.11230	143.67001	808.61053	-610.92615	97.69420	720.99158	-651.57141	122.00150	604.48065	-626.27606	229.24194	562.65814	-681.42267	123.64285	540.29266	-602.75708	170.06094	523.52631	-691.57269	116.11763	489.67465	-686.49231	148.01782	212.83411	-609.36530	88.67774	164.66638	-561.61188	68.73936	162.70547	-483.56155	112.67846	158.12822	-530.67761	163.65414	165.12759	-637.76135	224.89729	219.81900	-596.03705	200.33815	171.07930	-721.21118	213.98015	170.48973	-596.78882	438.07135	851.24585	-517.07654	383.09415	811.93793	-623.95007	423.97162	739.62823	-644.77637	402.18069	606.02295	-633.75671	292.47452	570.33954	-661.39709	404.12943	560.39374	-604.08820	348.64691	535.64868	-717.30975	406.18771	497.85602	-678.13538	399.08765	213.91647	-582.72852	449.90906	164.51538	-543.40320	460.10397	157.15509	-479.50598	409.89059	165.59428	-523.66412	368.99307	177.33670	-643.17242	309.00916	208.59528	-593.80859	328.52893	169.64287	-731.99713	327.23727	161.73035	-443.53299	448.51260	147.05896	-450.34161	74.98050	143.80103	-806.48566	82.46544	141.62372	-799.48792	456.38028	145.10118	
2	0.020	-623.14813	274.28442	1836.24609	-629.53656	90.21662	1543.46460	-629.77625	447.03778	1527.74170	-523.44855	263.64478	1354.90149	-532.87115	131.29118	1033.08435	-507.31219	357.38113	1035.56018	-722.78766	257.90948	1055.09888	-609.12585	81.76589	831.70618	-520.08173	143.68187	808.64227	-610.93414	97.83228	720.95502	-651.48248	122.11673	604.47644	-626.23004	229.26099	562.65582	-681.45514	123.66618	540.28168	-602.82904	170.06471	523.55597	-691.53247	116.20072	489.63416	-686.51447	148.02478	212.80273	-609.33929	88.68446	164.70749	-561.68384	68.81615	162.64722	-483.55060	112.71570	158.08234	-530.65955	163.57687	165.12460	-637.73566	224.84575	219.88354	-596.07892	200.33868	171.02831	-721.18243	214.05318	170.46384	-596.81262	438.03967	851.22412	-517.01068	383.19037	812.06708	-623.94672	423.97006	739.57465	-644.80060	402.17822	606.02350	-633.72821	292.47308	570.29755	-661.46033	404.17972	560.42065	-604.03265	348.65427	535.65942	-717.35144	406.14081	497.87573	-678.13477	399.08521	213.92012	-582.69678	449.95602	164.53496	-543.43256	460.10199	157.15744	-479.57297	409.90182	165.63388	-523.71393	369.00778	177.36836	-643.24255	308.87457	208.59869	-593.82599	328.50406	169.65710	-732.05042	327.17450	161.69040	-443.54718	448.59521	147.11572	-450.38440	74.96281	143.80800	-806.45154	82.51717	141.69632	-799.55603	456.41217	144.99615	
3	0.040	-623.33423	274.17462	1836.26550	-629.55389	90.19822	1543.37195	-629.85455	447.01660	1527.75378	-523.50769	263.66824	1354.96887	-532.97571	131.36920	1033.02820	-507.33115	357.38568	1035.53455	-722.79962	257.99310	1055.09558	-609.10712	81.77106	831.72485	-520.05731	143.72398	808.63861	-610.93640	97.94193	720.93359	-651.41455	122.21148	604.45392	-626.18842	229.28610	562.65179	-681.46344	123.71220	540.25012	-602.82782	170.07388	523.60889	-691.50043	116.24982	489.62122	-686.52527	148.02730	212.78844	-609.33258	88.68356	164.74748	-561.71997	68.86268	162.60942	-483.55457	112.75701	158.05428	-530.65057	163.52783	165.12431	-637.72791	224.82990	219.90379	-596.10883	200.32979	170.98862	-721.18024	214.08679	170.45346	-596.83948	438.04376	851.20850	-516.97339	383.26782	812.16113	-623.95416	423.98572	739.54535	-644.82037	402.19839	606.02002	-633.70929	292.46286	570.26971	-661.49176	404.22729	560.44019	-604.01147	348.67056	535.65369	-717.38672	406.12698	497.90024	-678.13135	399.08441	213.93062	-582.69849	449.96652	164.55547	-543.43829	460.09564	157.15298	-479.63449	409.91608	165.64964	-523.74707	369.02313	177.39133	-643.28595	308.80060	208.59259	-593.83698	328.47882	169.66376	-732.07037	327.15771	161.67195	-443.57135	448.65723	147.17763	-450.41217	74.94862	143.80562	-806.40601	82.54279	141.75395	-799.60327	456.44638	144.94930	
4	0.060	-623.51917	274.06421	1836.26147	-629.58600	90.18229	1543.27917	-629.97284	446.97812	1527.78308	-523.56061	263.68927	1355.03894	-533.01837	131.45619	1033.01306	-507.38577	357.38803	1035.54993	-722.79608	258.06577	1055.07129	-609.08710	81.76118	831.74847	-520.05493	143.80682	808.59351	-610.93469	97.99611	720.94409	-651.36646	122.25460	604.42090	-626.15955	229.32437	562.63586	-681.44476	123.76944	540.21277	-602.76440	170.09308	523.68146	-691.48077	116.26841	489.62640	-686.51813	148.02063	212.80122	-609.34930	88.67474	164.78165	-561.71344	68.88696	162.58949	-483.57538	112.80433	158.04633	-530.64929	163.51566	165.13062	-637.73584	224.84578	219.88391	-596.12714	200.31825	170.96495	-721.21686	214.07944	170.47171	-596.86621	438.10110	851.20709	-516.97589	383.33365	812.21509	-623.96521	424.02267	739.54114	-644.83435	402.23206	606.01331	-633.69989	292.44485	570.26923	-661.48840	404.26166	560.44824	-604.01886	348.69031	535.63531	-717.41339	406.14066	497.92273	-678.12439	399.08841	213.94774	-582.72388	449.94858	164.58328	-543.41864	460.08780	157.14561	-479.67758	409.91455	165.65564	-523.75757	369.03598	177.40074	-643.29547	308.78604	208.59453	-593.82581	328.45828	169.67848	-732.05310	327.18698	161.68362	-443.58682	448.68216	147.22639	-450.41907	74.94411	143.79805	-806.36298	82.55051	141.78340	-799.62433	456.47339	144.95100	
